<?xml version="1.0" encoding="utf-8"?>
<!-- Generator: Adobe Illustrator 19.0.0, SVG Export Plug-In . SVG Version: 6.00 Build 0)  -->
<svg version="1.1" id="Layer_1" xmlns="http://www.w3.org/2000/svg" xmlns:xlink="http://www.w3.org/1999/xlink" x="0px" y="0px"
	 viewBox="-198 363.7 214.5 67.3" style="enable-background:new -198 363.7 214.5 67.3;" xml:space="preserve">
<style type="text/css">
	.st0{fill:#010101;}
	.st1{fill:#FFFFFF;}
	.st2{fill:#F3F3F3;}
</style>
<rect x="-133.5" y="363.7" class="st0" width="150" height="67.3"/>
<g>
	<rect x="-197.5" y="364.2" class="st1" width="63.5" height="66.3"/>
	<path class="st0" d="M-134.5,364.7V430H-197v-65.3H-134.5 M-133.5,363.7H-198V431h64.5V363.7L-133.5,363.7z"/>
</g>
<g>
	<path class="st0" d="M-169.4,423.5v-20.7c0-8.1-0.1-13.9-0.5-20l0.2-0.1c2.4,5.3,5.7,10.8,9.1,16.2l15.4,24.6h6.3V375h-5.9v20.3
		c0,7.6,0.1,13.5,0.7,19.9l-0.1,0.1c-2.3-5-5.1-10.1-8.7-15.8l-15.6-24.6h-6.8v48.5H-169.4z M-192.5,375v48.5h6.3V375H-192.5z"/>
	<path class="st0" d="M-169.4,423.5h0.1v-20.7c0-8.1-0.1-13.9-0.5-20l-0.1,0l0,0.1l0.2-0.1l0-0.1l-0.1,0.1
		c2.5,5.3,5.7,10.8,9.1,16.2l15.4,24.7h6.5v-48.8h-6.2v20.4c0,7.6,0.1,13.5,0.7,20l0.1,0l-0.1-0.1l-0.1,0.1l0.1,0.1l0.1-0.1
		c-2.3-5-5.1-10.1-8.7-15.8l-15.6-24.6h-7v48.8h6.2v-0.1H-169.4v-0.1h-5.8l0-48.3h6.6l15.5,24.5c3.6,5.7,6.4,10.8,8.7,15.8l0.1,0.1
		l0.3-0.1l0.1,0l0-0.1c-0.6-6.5-0.7-12.4-0.7-19.9v-20.2h5.7v48.3h-6.1l-15.4-24.6c-3.4-5.4-6.6-10.9-9.1-16.2l0-0.1l-0.3,0.1
		l-0.1,0l0,0.1c0.4,6.1,0.5,11.9,0.5,20v20.7H-169.4v-0.1V423.5z M-192.5,375h-0.1v48.7h6.5v-48.8h-6.5v0.1H-192.5v0.1h6.1v48.3h-6
		l0-48.4H-192.5v0.1V375z"/>
	<path class="st2" d="M-11.7,380c1-0.3,3.2-0.6,6.2-0.6c6.6,0.1,11.2,2.8,11.2,9.1c0,5.5-4.2,9.2-10.9,9.2h-6.4V380z M-17.9,423.5
		h6.3v-21h5.9c5.7,0.2,8.3,2.7,9.7,9.4c1.4,6,2.4,10.2,3.2,11.6h6.5c-1-1.9-2.2-6.6-3.7-13.3c-1.2-5-3.4-8.5-7.1-9.8v-0.2
		c5.1-1.7,9.1-6,9.1-12.4c0-3.7-1.4-7.1-3.8-9.2c-3-2.7-7.3-4-14-4c-4.3,0-8.9,0.4-12,1V423.5z M-52.8,403.4l4.8-14
		c0.9-3,1.7-5.9,2.4-8.8h0.1c0.7,2.8,1.4,5.7,2.5,8.9l4.8,14H-52.8z M-36.9,408.3l5.2,15.3h6.7L-41.6,375h-7.6l-16.5,48.5h6.5
		l5-15.3H-36.9z M-83.2,423.5h6.3v-43.2H-62V375h-35.9v5.3h14.8V423.5z M-130.3,421.1c2.6,1.7,7.7,3.1,12.4,3.1c11.4,0,17-6.5,17-14
		c0-7.1-4.2-11.1-12.4-14.3c-6.7-2.6-9.6-4.8-9.6-9.4c0-3.3,2.5-7.3,9.1-7.3c4.4,0,7.6,1.4,9.2,2.3l1.7-5.1
		c-2.2-1.2-5.8-2.4-10.7-2.4c-9.4,0-15.7,5.6-15.7,13.2c0,6.8,4.9,10.9,12.8,13.8c6.6,2.5,9.1,5.1,9.1,9.6c0,4.9-3.7,8.3-10.2,8.3
		c-4.3,0-8.4-1.4-11.2-3.2L-130.3,421.1z"/>
	<path class="st0" d="M-11.7,380l0,0.1c1-0.3,3.1-0.6,6.2-0.6c6.6,0.1,11,2.8,11,8.9c0,5.5-4.2,9.1-10.8,9.1h-6.3l0-17.6H-11.7
		l0,0.1L-11.7,380h-0.1v17.8h6.5c6.7,0,11.1-3.7,11.1-9.3c0-6.3-4.6-9.1-11.3-9.2c-3,0-5.2,0.3-6.2,0.6l-0.1,0v0.1H-11.7z
		 M-17.9,423.5v0.1h6.4v-21h5.8c5.6,0.2,8.1,2.7,9.6,9.3c1.4,6.1,2.4,10.2,3.3,11.6l0,0.1h6.8l-0.1-0.2c-1-1.8-2.2-6.5-3.7-13.3
		c-1.2-5.1-3.4-8.6-7.2-9.9l0,0.1h0.1v-0.2H2.8l0,0.1c5.2-1.7,9.2-6,9.2-12.5c0-3.8-1.4-7.1-3.9-9.3c-3.1-2.8-7.4-4-14.1-4
		c-4.3,0-8.9,0.4-12.1,1l-0.1,0v48.1h0.1V423.5h0.1v-47.9h-0.1l0,0.1c3.2-0.6,7.7-1,12-1c6.7,0,11,1.2,14,3.9
		c2.4,2.1,3.8,5.4,3.8,9.1c0,6.4-4,10.5-9.1,12.3l-0.1,0v0.3v0.1l0.1,0c3.7,1.3,5.9,4.7,7,9.7c1.6,6.8,2.7,11.4,3.8,13.4l0.1-0.1
		v-0.1H7.2v0.1l0.1-0.1c-0.8-1.3-1.9-5.5-3.2-11.6c-1.4-6.7-4.1-9.3-9.8-9.5h-6v21h-6.1V423.5h0.1H-17.9z M-52.8,403.4l0.1,0l4.8-14
		c0.9-3,1.7-5.9,2.5-8.8l-0.1,0v0.1h0.1v-0.1l-0.1,0c0.7,2.8,1.4,5.7,2.5,8.9l4.7,13.8l-14.4,0V403.4l0.1,0L-52.8,403.4v0.1h14.8
		l-4.8-14.1c-1.1-3.2-1.8-6-2.5-8.8l0-0.1h-0.2h-0.1l0,0.1c-0.7,2.9-1.5,5.8-2.4,8.8l-4.8,14.2h0.2V403.4z M-36.9,408.3l-0.1,0
		l5.2,15.3h7l-16.6-48.8h-7.7l-16.6,48.8h6.7l5-15.3l17.1,0V408.3l-0.1,0L-36.9,408.3v-0.1h-17.3l-5,15.3h-6.2l16.4-48.3h7.4
		l16.5,48.3h-6.4l-5.2-15.3h-0.1V408.3z M-83.2,423.5v0.1h6.5v-43.2l14.8,0v-5.6H-98v5.6h14.8l0,43.2h0.1V423.5h0.1v-43.3h-14.8
		l0-5.1h35.7l0,5.1l-14.8,0v43.2l-6.2,0V423.5h0.1H-83.2z M-130.3,421.1l-0.1,0.1c2.6,1.7,7.7,3.1,12.5,3.1
		c11.5,0,17.1-6.5,17.1-14.1c0-7.2-4.2-11.2-12.5-14.4c-6.7-2.6-9.6-4.8-9.6-9.2c0-3.2,2.4-7.1,9-7.1c4.4,0,7.6,1.4,9.2,2.3l0.1,0.1
		l1.8-5.4l-0.1,0c-2.2-1.2-5.8-2.4-10.8-2.4c-9.5,0-15.8,5.7-15.8,13.3c0,6.9,5,11.1,12.9,13.9c6.5,2.5,9.1,5.1,9.1,9.5
		c0,4.8-3.7,8.1-10,8.2c-4.3,0-8.4-1.4-11.2-3.2l-0.1-0.1l-1.7,5.5l0.1,0.1L-130.3,421.1l0.1,0l1.6-5.3l-0.1,0l-0.1,0.1
		c2.8,1.7,7,3.2,11.3,3.2c6.4,0,10.3-3.4,10.3-8.4c0-4.6-2.7-7.3-9.2-9.8c-7.9-2.8-12.7-6.9-12.7-13.6c0-7.5,6.2-13,15.6-13.1
		c4.9,0,8.5,1.1,10.7,2.4l0.1-0.1l-0.1,0l-1.7,5.1l0.1,0l0.1-0.1c-1.6-0.9-4.9-2.3-9.3-2.3c-6.7,0-9.3,4-9.3,7.4
		c0,4.6,3,6.9,9.7,9.5c8.2,3.2,12.3,7.1,12.3,14.1c0,7.4-5.5,13.8-16.9,13.8c-4.7,0-9.8-1.4-12.3-3.1L-130.3,421.1l0.1,0
		L-130.3,421.1z"/>
</g>
</svg>
